<svg width="85" height="86" viewBox="0 0 85 86" fill="none" xmlns="http://www.w3.org/2000/svg">
<circle cx="42.1957" cy="42.9999" r="42.0204" fill="black"/>
<g clip-path="url(#clip0_1_63)">
<path d="M47.3685 31.6448L56.9315 41.2078C57.4064 41.6833 57.6731 42.3278 57.6731 42.9997C57.6731 43.6717 57.4064 44.3162 56.9315 44.7916L47.3702 54.3563C46.8945 54.832 46.2494 55.0993 45.5766 55.0993C44.9039 55.0993 44.2587 54.832 43.783 54.3563C43.3073 53.8806 43.0401 53.2355 43.0401 52.5627C43.0401 51.89 43.3073 51.2448 43.783 50.7691L49.0167 45.5354H29.5171C28.8446 45.5354 28.1996 45.2683 27.7241 44.7927C27.2485 44.3172 26.9814 43.6722 26.9814 42.9997C26.9814 42.3272 27.2485 41.6822 27.7241 41.2067C28.1996 40.7312 28.8446 40.464 29.5171 40.464H49.0167L43.7847 35.2303C43.3092 34.7546 43.0422 34.1095 43.0424 33.4369C43.0425 32.7644 43.3099 32.1194 43.7856 31.6439C44.2613 31.1685 44.9063 30.9015 45.5789 30.9016C46.2515 30.9018 46.8964 31.1691 47.3719 31.6448H47.3685Z" fill="white"/>
</g>
<defs>
<clipPath id="clip0_1_63">
<rect width="40.5714" height="40.5714" fill="white" transform="translate(21.91 22.7141)"/>
</clipPath>
</defs>
</svg>
