<svg width="477" height="93" viewBox="0 0 477 93" fill="none" xmlns="http://www.w3.org/2000/svg">
<path d="M33.2025 92.896C23.4745 92.896 15.5385 90.8053 9.3945 86.624C3.33584 82.3573 0.306504 76.3413 0.306504 68.576C0.306504 67.808 0.391838 66.656 0.562504 65.12H23.3465C23.0905 68.3627 23.8585 70.9227 25.6505 72.8C27.4425 74.6773 30.1732 75.616 33.8425 75.616C37.1705 75.616 39.7732 74.8907 41.6505 73.44C43.6132 71.9893 44.5945 69.9413 44.5945 67.296C44.5945 64.5653 43.3572 62.3467 40.8825 60.64C38.4932 58.9333 34.7385 57.0133 29.6185 54.88C24.6692 52.832 20.6158 50.912 17.4585 49.12C14.3865 47.2427 11.6985 44.7253 9.3945 41.568C7.0905 38.4107 5.93851 34.4427 5.93851 29.664C5.85317 23.776 7.30384 18.656 10.2905 14.304C13.2772 9.95199 17.4158 6.62399 22.7065 4.31999C27.9972 2.016 34.0558 0.863998 40.8825 0.863998C47.0265 0.863998 52.4878 1.84533 57.2665 3.808C62.0452 5.68533 65.7572 8.45866 68.4025 12.128C71.0478 15.712 72.3705 19.9787 72.3705 24.928C72.3705 26.208 72.3278 27.1467 72.2425 27.744H48.9465C49.0318 27.4027 49.0745 26.8907 49.0745 26.208C49.0745 23.8187 48.2212 21.8987 46.5145 20.448C44.8932 18.912 42.6318 18.144 39.7305 18.144C36.6585 18.144 34.1412 18.912 32.1785 20.448C30.3012 21.8987 29.3625 23.904 29.3625 26.464C29.3625 29.024 30.5572 31.2 32.9465 32.992C35.3358 34.6987 39.0478 36.704 44.0825 39.008C49.1172 41.312 53.2132 43.4453 56.3705 45.408C59.6132 47.3707 62.3865 50.016 64.6905 53.344C66.9945 56.5867 68.1465 60.5973 68.1465 65.376C68.1465 70.6667 66.7385 75.4027 63.9225 79.584C61.1065 83.7653 57.0532 87.0507 51.7625 89.44C46.4718 91.744 40.2852 92.896 33.2025 92.896ZM129.024 46.176L157.056 92H130.304L107.136 52.32L100.096 92H78.2075L94.0795 2.144H115.968L109.056 41.568L146.048 2.144H171.648L129.024 46.176ZM206.309 2.144L190.437 92H168.549L184.421 2.144H206.309ZM287.904 2.144L284.96 19.424H261.024L248.224 92H226.336L239.136 19.424H215.328L218.4 2.144H287.904ZM288.461 46.944C289.997 38.0693 293.282 30.176 298.317 23.264C303.437 16.2667 309.751 10.848 317.261 7.008C324.77 3.08266 332.877 1.12 341.581 1.12C352.247 1.12 360.866 3.93599 367.437 9.56799C374.093 15.2 377.847 22.88 378.701 32.608H354.637C353.527 28.9387 351.479 26.1653 348.493 24.288C345.591 22.3253 342.007 21.344 337.741 21.344C330.999 21.344 325.154 23.6907 320.205 28.384C315.255 32.992 312.098 39.1787 310.733 46.944C310.306 49.3333 310.093 51.424 310.093 53.216C310.093 59.1893 311.757 63.9253 315.085 67.424C318.413 70.9227 322.978 72.672 328.781 72.672C332.962 72.672 336.845 71.6907 340.429 69.728C344.098 67.7653 347.17 64.9493 349.645 61.28H373.709C369.442 71.008 362.999 78.688 354.381 84.32C345.762 89.8667 336.119 92.64 325.453 92.64C317.773 92.64 311.074 91.1467 305.357 88.16C299.639 85.1733 295.245 80.9493 292.173 75.488C289.101 70.0267 287.565 63.6693 287.565 56.416C287.565 53.1733 287.863 50.016 288.461 46.944ZM476.396 2.144L460.524 92H438.636L445.164 54.752H411.116L404.588 92H382.7L398.572 2.144H420.46L414.188 37.472H448.236L454.508 2.144H476.396Z" fill="url(#paint0_linear_1_13)"/>
<defs>
<linearGradient id="paint0_linear_1_13" x1="235.5" y1="-67.2045" x2="235.5" y2="99" gradientUnits="userSpaceOnUse">
<stop stop-color="#DC3535"/>
<stop offset="1" stop-color="#F59428"/>
</linearGradient>
</defs>
</svg>
