<svg width="124" height="24" viewBox="0 0 124 24" fill="none" xmlns="http://www.w3.org/2000/svg">
<path d="M8.37813 23.224C5.94613 23.224 3.96213 22.7013 2.42613 21.656C0.911463 20.5893 0.154129 19.0853 0.154129 17.144C0.154129 16.952 0.175463 16.664 0.218129 16.28H5.91413C5.85013 17.0907 6.04213 17.7307 6.49013 18.2C6.93813 18.6693 7.6208 18.904 8.53813 18.904C9.37013 18.904 10.0208 18.7227 10.4901 18.36C10.9808 17.9973 11.2261 17.4853 11.2261 16.824C11.2261 16.1413 10.9168 15.5867 10.2981 15.16C9.7008 14.7333 8.76213 14.2533 7.48213 13.72C6.2448 13.208 5.23146 12.728 4.44213 12.28C3.67413 11.8107 3.00213 11.1813 2.42613 10.392C1.85013 9.60267 1.56213 8.61067 1.56213 7.416C1.5408 5.944 1.90346 4.664 2.65013 3.576C3.3968 2.488 4.43146 1.656 5.75413 1.08C7.0768 0.503999 8.59146 0.216 10.2981 0.216C11.8341 0.216 13.1995 0.461333 14.3941 0.952C15.5888 1.42133 16.5168 2.11467 17.1781 3.032C17.8395 3.928 18.1701 4.99467 18.1701 6.232C18.1701 6.552 18.1595 6.78667 18.1381 6.936H12.3141C12.3355 6.85067 12.3461 6.72267 12.3461 6.552C12.3461 5.95467 12.1328 5.47467 11.7061 5.112C11.3008 4.728 10.7355 4.536 10.0101 4.536C9.24213 4.536 8.6128 4.728 8.12213 5.112C7.6528 5.47467 7.41813 5.976 7.41813 6.616C7.41813 7.256 7.7168 7.8 8.31413 8.248C8.91146 8.67467 9.83946 9.176 11.0981 9.752C12.3568 10.328 13.3808 10.8613 14.1701 11.352C14.9808 11.8427 15.6741 12.504 16.2501 13.336C16.8261 14.1467 17.1141 15.1493 17.1141 16.344C17.1141 17.6667 16.7621 18.8507 16.0581 19.896C15.3541 20.9413 14.3408 21.7627 13.0181 22.36C11.6955 22.936 10.1488 23.224 8.37813 23.224ZM33.1524 11.544L40.1604 23H33.4724L27.6804 13.08L25.9204 23H20.4484L24.4164 0.535999H29.8884L28.1604 10.392L37.4084 0.535999H43.8084L33.1524 11.544ZM53.2929 0.535999L49.3249 23H43.8529L47.8209 0.535999H53.2929ZM74.5104 0.535999L73.7744 4.856H67.7904L64.5904 23H59.1184L62.3184 4.856H56.3664L57.1344 0.535999H74.5104ZM75.4686 11.736C75.8526 9.51733 76.674 7.544 77.9326 5.816C79.2126 4.06667 80.7913 2.712 82.6686 1.752C84.546 0.770665 86.5726 0.279999 88.7486 0.279999C91.4153 0.279999 93.57 0.983999 95.2126 2.392C96.8766 3.8 97.8153 5.72 98.0286 8.152H92.0126C91.7353 7.23467 91.2233 6.54133 90.4766 6.072C89.7513 5.58133 88.8553 5.336 87.7886 5.336C86.1033 5.336 84.642 5.92267 83.4046 7.096C82.1673 8.248 81.378 9.79467 81.0366 11.736C80.93 12.3333 80.8766 12.856 80.8766 13.304C80.8766 14.7973 81.2926 15.9813 82.1246 16.856C82.9566 17.7307 84.098 18.168 85.5486 18.168C86.594 18.168 87.5646 17.9227 88.4606 17.432C89.378 16.9413 90.146 16.2373 90.7646 15.32H96.7806C95.714 17.752 94.1033 19.672 91.9486 21.08C89.794 22.4667 87.3833 23.16 84.7166 23.16C82.7966 23.16 81.122 22.7867 79.6926 22.04C78.2633 21.2933 77.1646 20.2373 76.3966 18.872C75.6286 17.5067 75.2446 15.9173 75.2446 14.104C75.2446 13.2933 75.3193 12.504 75.4686 11.736ZM123.272 0.535999L119.304 23H113.832L115.464 13.688H106.952L105.32 23H99.8476L103.816 0.535999H109.288L107.72 9.368H116.232L117.8 0.535999H123.272Z" fill="url(#paint0_linear_1_71)"/>
<defs>
<linearGradient id="paint0_linear_1_71" x1="61" y1="-19.1818" x2="61" y2="26" gradientUnits="userSpaceOnUse">
<stop stop-color="#DC3535"/>
<stop offset="1" stop-color="#F59428"/>
</linearGradient>
</defs>
</svg>
